<svg xmlns="http://www.w3.org/2000/svg" xmlns:xlink="http://www.w3.org/1999/xlink" width="130" height="21" viewBox="0 0 130 21">
    <defs>
        <path id="a" d="M0 21h128V0H0z"/>
    </defs>
    <g fill="none" fill-rule="evenodd">
        <path fill="#F7F7F7" d="M-58-41H967v633H-58z"/>
        <g>
            <path fill="#717073" d="M25 4h2.16l9.573 7.66c.553.428 1.083.88 1.555 1.409-.082-1.082-.133-1.84-.133-2.241V4H41v13h-2.16l-9.99-8.04a10.555 10.555 0 0 1-1.133-1.057c.101 1.008.13 1.689.13 2.068V17H25V4zM46 4h13.867v2.217H49.15v2.896h10.702v2.22H49.149v3.22H60V17H46z"/>
            <mask id="b" fill="#fff">
                <use xlink:href="#a"/>
            </mask>
            <path fill="#717073" d="M66.206 14.554h10.59v-8.24h-10.59v8.24zM66.421 4h10.157C79.173 4 80 4.629 80 7.072v6.853C80 16.371 79.173 17 76.578 17H66.42C63.829 17 63 16.371 63 13.925V7.072C63 4.63 63.829 4 66.42 4zM82 4h3.368l3.548 8.719L92.63 4h2.283l3.792 8.719L102.097 4H105l-5.399 13h-2.194l-3.852-8.995L89.645 17h-2.25zM107 17h3V4h-3zM113 15.59l9.121-9.275h-8.21V4H127v1.284l-9.245 9.27H127V17h-14z" mask="url(#b)"/>
            <path fill="#E21837" d="M12.21 3.798c.003 1.108-.55 1.46-1.128 1.813l-.365.199.112.117c.527.57.619 1.443.225 2.132l-.06.11.105.07c.27.165.567.235.578.236l.127.028.031-.118c.153-.56.56-1.007 1.07-1.22.184-.076.388-.124.595-.13l.165-.006-.115-.396c-.163-.661-.302-1.3.48-2.083a2.13 2.13 0 0 1 .683-.454c.921-.381 1.946-.084 2.198-.003.117.353.549 1.87-.46 2.878-.24.245-.469.399-.687.488-.485.202-.94.11-1.39-.004l-.4-.117-.006.165a1.814 1.814 0 0 1-1.125 1.588 3.185 3.185 0 0 1-.222.078l-.123.033.028.122c.065.298.23.565.237.574l.069.108.109-.064c.074-.038.141-.072.212-.1a1.813 1.813 0 0 1 1.922.328l.115.107.201-.363c.24-.397.5-.782.981-.984.219-.094.488-.146.83-.144 1.43 0 2.2 1.38 2.362 1.714-.13.26-.634 1.17-1.542 1.548a2.098 2.098 0 0 1-.82.164c-1.108 0-1.46-.55-1.81-1.132l-.2-.365-.12.113a1.772 1.772 0 0 1-.515.33 1.851 1.851 0 0 1-1.616-.105l-.11-.06-.068.105a2.097 2.097 0 0 0-.237.58l-.028.124.12.034c.769.205 1.32.89 1.35 1.663l.003.162.4-.113c.66-.165 1.294-.303 2.078.48 1.01 1.013.576 2.53.459 2.879-.352.12-1.872.554-2.88-.454-.782-.784-.641-1.422-.482-2.08l.118-.401-.164-.003a1.824 1.824 0 0 1-1.665-1.348l-.036-.125-.125.03c-.31.07-.566.234-.577.238l-.107.07.064.109c.394.683.3 1.564-.225 2.132l-.112.118.365.202c.578.35 1.128.704 1.128 1.81 0 1.426-1.381 2.193-1.71 2.36-.331-.163-1.713-.93-1.713-2.364 0-1.103.546-1.457 1.129-1.81l.365-.2-.112-.116a1.828 1.828 0 0 1-.226-2.135l.062-.106-.106-.07c-.01-.006-.27-.168-.578-.238l-.125-.029-.033.123a1.848 1.848 0 0 1-1.067 1.216 1.852 1.852 0 0 1-.6.133l-.162.005.113.399c.167.658.304 1.294-.479 2.076-.21.208-.444.357-.69.457-.913.38-1.936.085-2.188.001-.106-.316-.55-1.87.457-2.88.243-.243.471-.394.688-.484.483-.199.934-.11 1.39.004l.399.117.007-.165a1.817 1.817 0 0 1 1.347-1.663l.12-.037-.026-.121a2.076 2.076 0 0 0-.24-.577l-.066-.104-.11.062c-.068.037-.139.074-.212.102a1.81 1.81 0 0 1-1.917-.327l-.118-.112-.201.366c-.243.397-.499.784-.983.984-.216.09-.486.143-.831.143-1.426 0-2.21-1.415-2.356-1.714.116-.235.634-1.167 1.55-1.549.24-.1.508-.163.806-.163 1.107.001 1.463.55 1.814 1.133l.201.362.116-.109c.143-.13.316-.244.519-.328a1.794 1.794 0 0 1 1.613.105l.109.058.07-.106c.003-.011.165-.273.237-.576l.03-.124-.125-.038a1.818 1.818 0 0 1-1.347-1.665l-.004-.16-.397.114c-.661.162-1.297.3-2.08-.484-1.01-1.007-.577-2.528-.46-2.878.312-.103 1.87-.553 2.878.456.787.784.646 1.423.484 2.083l-.118.4.164.002c.773.028 1.46.583 1.669 1.348l.03.124.125-.03c.015-.002.324-.079.579-.238l.107-.069-.064-.11c-.393-.685-.3-1.563.225-2.132l.108-.119-.361-.197c-.577-.352-1.128-.705-1.13-1.814.002-1.428 1.418-2.211 1.714-2.36.333.166 1.71.932 1.71 2.361M.8 14.517c2.22 5.358 8.359 7.9 13.717 5.68 5.356-2.216 7.899-8.357 5.68-13.715C17.98 1.127 11.84-1.418 6.484.803 1.127 3.021-1.416 9.162.801 14.517" mask="url(#b)"/>
        </g>
    </g>
</svg>
